<svg width="2300" height="34" viewBox="0 0 2300 34" fill="none" xmlns="http://www.w3.org/2000/svg">
<path d="M2271.3 0C2256.9 0 2256.9 14 2242.6 14C2228.3 14 2228.2 0 2213.9 0C2199.6 0 2199.5 14 2185.2 14C2170.8 14 2170.8 0 2156.4 0C2142 0 2142 14 2127.7 14C2113.3 14 2113.3 0 2099 0C2084.6 0 2084.6 14 2070.3 14C2056 14 2055.6 0 2041.3 0C2026.9 0 2026.9 14 2012.6 14C1998.3 14 1998.1 0 1983.8 0C1969.4 0 1969.4 14 1955.1 14C1940.7 14 1940.7 0 1926.3 0C1911.9 0 1911.9 14 1897.6 14C1883.2 14 1883.2 0 1868.9 0C1854.6 0 1854.4 14 1840 14C1825.6 14 1825.6 0 1811.3 0C1796.9 0 1796.9 14 1782.6 14C1768.2 14 1768.2 0 1753.8 0C1739.4 0 1739.4 14 1725.1 14C1710.7 14 1710.7 0 1696.4 0C1682 0 1682 14 1667.7 14C1653.3 14 1653.3 0 1639 0C1624.6 0 1624.6 14 1610.2 14C1595.8 14 1595.8 0 1581.4 0C1567 0 1567 14 1552.6 14C1538.2 14 1538.2 0 1523.8 0C1509.4 0 1509.4 14 1495 14C1480.6 14 1480.6 0 1466.2 0C1451.8 0 1451.8 14 1437.4 14C1423 14 1423 0 1408.6 0C1394.2 0 1394.2 14 1379.9 14C1365.5 14 1365.5 0 1351.1 0C1336.7 0 1336.7 14 1322.3 14C1307.9 14 1307.9 0 1293.5 0C1279.1 0 1279.1 14 1264.7 14C1250.3 14 1250.3 0 1235.9 0C1221.9 0 1221.9 14 1207.5 14C1193.1 14 1193.1 0 1178.8 0C1164.5 0 1164.4 14 1150 14V34H2300V14C2285.6 14 2285.6 0 2271.3 0Z" fill="white"/>
<path d="M1121.3 0C1106.9 0 1106.9 14 1092.6 14C1078.3 14 1078.2 0 1063.9 0C1049.6 0 1049.5 14 1035.2 14C1020.8 14 1020.8 0 1006.4 0C992 0 992 14 977.7 14C963.3 14 963.3 0 949 0C934.6 0 934.6 14 920.3 14C906 14 905.6 0 891.3 0C876.9 0 876.9 14 862.6 14C848.3 14 848.1 0 833.8 0C819.4 0 819.4 14 805.1 14C790.7 14 790.7 0 776.3 0C761.9 0 761.9 14 747.6 14C733.2 14 733.2 0 718.9 0C704.6 0 704.4 14 690 14C675.6 14 675.6 0 661.3 0C646.9 0 646.9 14 632.6 14C618.2 14 618.2 0 603.8 0C589.4 0 589.4 14 575.1 14C560.7 14 560.7 0 546.4 0C532 0 532 14 517.7 14C503.3 14 503.3 0 489 0C474.6 0 474.6 14 460.2 14C445.8 14 445.8 0 431.4 0C417 0 417 14 402.6 14C388.2 14 388.2 0 373.8 0C359.4 0 359.4 14 345 14C330.6 14 330.6 0 316.2 0C301.8 0 301.8 14 287.4 14C273 14 273 0 258.6 0C244.2 0 244.2 14 229.9 14C215.5 14 215.5 0 201.1 0C186.7 0 186.7 14 172.3 14C157.9 14 157.9 0 143.5 0C129.1 0 129.1 14 114.7 14C100.3 14 100.3 0 85.9 0C71.9 0 71.9 14 57.5 14C43.1 14 43.1 0 28.8 0C14.5 0 14.4 14 0 14V34H1150V14C1135.6 14 1135.6 0 1121.3 0Z" fill="white"/>
</svg>
