<svg width="4537" height="34" viewBox="0 0 4537 34" fill="none" xmlns="http://www.w3.org/2000/svg">
<path d="M2271.3 0C2256.9 0 2256.9 14 2242.6 14C2228.3 14 2228.2 0 2213.9 0C2199.6 0 2199.5 14 2185.2 14C2170.8 14 2170.8 0 2156.4 0C2142 0 2142 14 2127.7 14C2113.3 14 2113.3 0 2099 0C2084.6 0 2084.6 14 2070.3 14C2056 14 2055.6 0 2041.3 0C2026.9 0 2026.9 14 2012.6 14C1998.3 14 1998.1 0 1983.8 0C1969.4 0 1969.4 14 1955.1 14C1940.7 14 1940.7 0 1926.3 0C1911.9 0 1911.9 14 1897.6 14C1883.2 14 1883.2 0 1868.9 0C1854.6 0 1854.4 14 1840 14C1825.6 14 1825.6 0 1811.3 0C1796.9 0 1796.9 14 1782.6 14C1768.2 14 1768.2 0 1753.8 0C1739.4 0 1739.4 14 1725.1 14C1710.7 14 1710.7 0 1696.4 0C1682 0 1682 14 1667.7 14C1653.3 14 1653.3 0 1639 0C1624.6 0 1624.6 14 1610.2 14C1595.8 14 1595.8 0 1581.4 0C1567 0 1567 14 1552.6 14C1538.2 14 1538.2 0 1523.8 0C1509.4 0 1509.4 14 1495 14C1480.6 14 1480.6 0 1466.2 0C1451.8 0 1451.8 14 1437.4 14C1423 14 1423 0 1408.6 0C1394.2 0 1394.2 14 1379.9 14C1365.5 14 1365.5 0 1351.1 0C1336.7 0 1336.7 14 1322.3 14C1307.9 14 1307.9 0 1293.5 0C1279.1 0 1279.1 14 1264.7 14C1250.3 14 1250.3 0 1235.9 0C1221.9 0 1221.9 14 1207.5 14C1193.1 14 1193.1 0 1178.8 0C1164.5 0 1164.4 14 1150 14V34H2300V14C2285.6 14 2285.6 0 2271.3 0Z" fill="white"/>
<path d="M1121.3 0C1106.9 0 1106.9 14 1092.6 14C1078.3 14 1078.2 0 1063.9 0C1049.6 0 1049.5 14 1035.2 14C1020.8 14 1020.8 0 1006.4 0C992 0 992 14 977.7 14C963.3 14 963.3 0 949 0C934.6 0 934.6 14 920.3 14C906 14 905.6 0 891.3 0C876.9 0 876.9 14 862.6 14C848.3 14 848.1 0 833.8 0C819.4 0 819.4 14 805.1 14C790.7 14 790.7 0 776.3 0C761.9 0 761.9 14 747.6 14C733.2 14 733.2 0 718.9 0C704.6 0 704.4 14 690 14C675.6 14 675.6 0 661.3 0C646.9 0 646.9 14 632.6 14C618.2 14 618.2 0 603.8 0C589.4 0 589.4 14 575.1 14C560.7 14 560.7 0 546.4 0C532 0 532 14 517.7 14C503.3 14 503.3 0 489 0C474.6 0 474.6 14 460.2 14C445.8 14 445.8 0 431.4 0C417 0 417 14 402.6 14C388.2 14 388.2 0 373.8 0C359.4 0 359.4 14 345 14C330.6 14 330.6 0 316.2 0C301.8 0 301.8 14 287.4 14C273 14 273 0 258.6 0C244.2 0 244.2 14 229.9 14C215.5 14 215.5 0 201.1 0C186.7 0 186.7 14 172.3 14C157.9 14 157.9 0 143.5 0C129.1 0 129.1 14 114.7 14C100.3 14 100.3 0 85.9 0C71.9 0 71.9 14 57.5 14C43.1 14 43.1 0 28.8 0C14.5 0 14.4 14 0 14V34H1150V14C1135.6 14 1135.6 0 1121.3 0Z" fill="white"/>
<path d="M4508.3 0C4493.9 0 4493.9 14 4479.6 14C4465.3 14 4465.2 0 4450.9 0C4436.6 0 4436.5 14 4422.2 14C4407.8 14 4407.8 0 4393.4 0C4379 0 4379 14 4364.7 14C4350.3 14 4350.3 0 4336 0C4321.6 0 4321.6 14 4307.3 14C4293 14 4292.6 0 4278.3 0C4263.9 0 4263.9 14 4249.6 14C4235.3 14 4235.1 0 4220.8 0C4206.4 0 4206.4 14 4192.1 14C4177.7 14 4177.7 0 4163.3 0C4148.9 0 4148.9 14 4134.6 14C4120.2 14 4120.2 0 4105.9 0C4091.6 0 4091.4 14 4077 14C4062.6 14 4062.6 0 4048.3 0C4033.9 0 4033.9 14 4019.6 14C4005.2 14 4005.2 0 3990.8 0C3976.4 0 3976.4 14 3962.1 14C3947.7 14 3947.7 0 3933.4 0C3919 0 3919 14 3904.7 14C3890.3 14 3890.3 0 3876 0C3861.6 0 3861.6 14 3847.2 14C3832.8 14 3832.8 0 3818.4 0C3804 0 3804 14 3789.6 14C3775.2 14 3775.2 0 3760.8 0C3746.4 0 3746.4 14 3732 14C3717.6 14 3717.6 0 3703.2 0C3688.8 0 3688.8 14 3674.4 14C3660 14 3660 0 3645.6 0C3631.2 0 3631.2 14 3616.9 14C3602.5 14 3602.5 0 3588.1 0C3573.7 0 3573.7 14 3559.3 14C3544.9 14 3544.9 0 3530.5 0C3516.1 0 3516.1 14 3501.7 14C3487.3 14 3487.3 0 3472.9 0C3458.9 0 3458.9 14 3444.5 14C3430.1 14 3430.1 0 3415.8 0C3401.5 0 3401.4 14 3387 14V34H4537V14C4522.6 14 4522.6 0 4508.3 0Z" fill="white"/>
<path d="M3358.3 0C3343.9 0 3343.9 14 3329.6 14C3315.3 14 3315.2 0 3300.9 0C3286.6 0 3286.5 14 3272.2 14C3257.8 14 3257.8 0 3243.4 0C3229 0 3229 14 3214.7 14C3200.3 14 3200.3 0 3186 0C3171.6 0 3171.6 14 3157.3 14C3143 14 3142.6 0 3128.3 0C3113.9 0 3113.9 14 3099.6 14C3085.3 14 3085.1 0 3070.8 0C3056.4 0 3056.4 14 3042.1 14C3027.7 14 3027.7 0 3013.3 0C2998.9 0 2998.9 14 2984.6 14C2970.2 14 2970.2 0 2955.9 0C2941.6 0 2941.4 14 2927 14C2912.6 14 2912.6 0 2898.3 0C2883.9 0 2883.9 14 2869.6 14C2855.2 14 2855.2 0 2840.8 0C2826.4 0 2826.4 14 2812.1 14C2797.7 14 2797.7 0 2783.4 0C2769 0 2769 14 2754.7 14C2740.3 14 2740.3 0 2726 0C2711.6 0 2711.6 14 2697.2 14C2682.8 14 2682.8 0 2668.4 0C2654 0 2654 14 2639.6 14C2625.2 14 2625.2 0 2610.8 0C2596.4 0 2596.4 14 2582 14C2567.6 14 2567.6 0 2553.2 0C2538.8 0 2538.8 14 2524.4 14C2510 14 2510 0 2495.6 0C2481.2 0 2481.2 14 2466.9 14C2452.5 14 2452.5 0 2438.1 0C2423.7 0 2423.7 14 2409.3 14C2394.9 14 2394.9 0 2380.5 0C2366.1 0 2366.1 14 2351.7 14C2337.3 14 2337.3 0 2322.9 0C2308.9 0 2308.9 14 2294.5 14C2280.1 14 2280.1 0 2265.8 0C2251.5 0 2251.4 14 2237 14V34H3387V14C3372.6 14 3372.6 0 3358.3 0Z" fill="white"/>
</svg>
