<svg width="2500" height="34" viewBox="0 0 2500 34" fill="none" xmlns="http://www.w3.org/2000/svg">
<path d="M1218.8 0C1203.15 0 1203.15 14 1187.61 14C1172.07 14 1171.96 0 1156.41 0C1140.87 0 1140.76 14 1125.22 14C1109.57 14 1109.57 0 1093.91 0C1078.26 0 1078.26 14 1062.72 14C1047.07 14 1047.07 0 1031.52 0C1015.87 0 1015.87 14 1000.33 14C984.783 14 984.348 0 968.804 0C953.152 0 953.152 14 937.609 14C922.065 14 921.848 0 906.304 0C890.652 0 890.652 14 875.109 14C859.456 14 859.456 0 843.804 0C828.152 0 828.152 14 812.609 14C796.956 14 796.957 0 781.413 0C765.87 0 765.652 14 750 14C734.348 14 734.348 0 718.804 0C703.152 0 703.152 14 687.609 14C671.956 14 671.956 0 656.304 0C640.652 0 640.652 14 625.109 14C609.456 14 609.457 0 593.913 0C578.261 0 578.261 14 562.717 14C547.065 14 547.065 0 531.522 0C515.87 0 515.87 14 500.217 14C484.565 14 484.565 0 468.913 0C453.261 0 453.261 14 437.609 14C421.957 14 421.957 0 406.304 0C390.652 0 390.652 14 375 14C359.348 14 359.348 0 343.696 0C328.043 0 328.043 14 312.391 14C296.739 14 296.739 0 281.087 0C265.435 0 265.435 14 249.891 14C234.239 14 234.239 0 218.587 0C202.935 0 202.935 14 187.283 14C171.63 14 171.63 0 155.978 0C140.326 0 140.326 14 124.674 14C109.022 14 109.022 0 93.3696 0C78.1522 0 78.1522 14 62.5 14C46.8478 14 46.8478 0 31.3043 0C15.7609 0 15.6522 14 0 14V34H1250V14C1234.35 14 1234.35 0 1218.8 0Z" fill="white"/>
<path d="M2468.8 0C2453.15 0 2453.15 14 2437.61 14C2422.07 14 2421.96 0 2406.41 0C2390.87 0 2390.76 14 2375.22 14C2359.57 14 2359.57 0 2343.91 0C2328.26 0 2328.26 14 2312.72 14C2297.07 14 2297.07 0 2281.52 0C2265.87 0 2265.87 14 2250.33 14C2234.78 14 2234.35 0 2218.8 0C2203.15 0 2203.15 14 2187.61 14C2172.07 14 2171.85 0 2156.3 0C2140.65 0 2140.65 14 2125.11 14C2109.46 14 2109.46 0 2093.8 0C2078.15 0 2078.15 14 2062.61 14C2046.96 14 2046.96 0 2031.41 0C2015.87 0 2015.65 14 2000 14C1984.35 14 1984.35 0 1968.8 0C1953.15 0 1953.15 14 1937.61 14C1921.96 14 1921.96 0 1906.3 0C1890.65 0 1890.65 14 1875.11 14C1859.46 14 1859.46 0 1843.91 0C1828.26 0 1828.26 14 1812.72 14C1797.07 14 1797.07 0 1781.52 0C1765.87 0 1765.87 14 1750.22 14C1734.57 14 1734.57 0 1718.91 0C1703.26 0 1703.26 14 1687.61 14C1671.96 14 1671.96 0 1656.3 0C1640.65 0 1640.65 14 1625 14C1609.35 14 1609.35 0 1593.7 0C1578.04 0 1578.04 14 1562.39 14C1546.74 14 1546.74 0 1531.09 0C1515.43 0 1515.43 14 1499.89 14C1484.24 14 1484.24 0 1468.59 0C1452.93 0 1452.93 14 1437.28 14C1421.63 14 1421.63 0 1405.98 0C1390.33 0 1390.33 14 1374.67 14C1359.02 14 1359.02 0 1343.37 0C1328.15 0 1328.15 14 1312.5 14C1296.85 14 1296.85 0 1281.3 0C1265.76 0 1265.65 14 1250 14V34H2500V14C2484.35 14 2484.35 0 2468.8 0Z" fill="white"/>
</svg>
